<?xml version="1.0" encoding="UTF-8" standalone="no"?>
<!DOCTYPE svg PUBLIC "-//W3C//DTD SVG 1.1//EN" "http://www.w3.org/Graphics/SVG/1.1/DTD/svg11.dtd">
<svg width="100%" height="100%" viewBox="0 0 440 440" version="1.1" xmlns="http://www.w3.org/2000/svg" xmlns:xlink="http://www.w3.org/1999/xlink" xml:space="preserve" xmlns:serif="http://www.serif.com/" style="fill-rule:evenodd;clip-rule:evenodd;stroke-linejoin:round;stroke-miterlimit:2;">
    <g transform="matrix(1,0,0,1,-592,0)">
        <g id="ArtBoard2" transform="matrix(0.88,0,0,0.88,71.04,0)">
            <rect x="592" y="0" width="500" height="500" style="fill:rgb(194,185,197);"/>
            <g transform="matrix(1.13636,0,0,1.13636,387.455,-15.625)">
                <g transform="matrix(1,0,0,1,150,6.5)">
                    <path d="M242,67.988C238.374,65.457 236,61.254 236,56.5C236,48.773 242.273,42.5 250,42.5C257.727,42.5 264,48.773 264,56.5C264,61.254 261.626,65.457 258,67.988L258,108L266.25,108C272.183,108 277,112.817 277,118.75L277,126.498C309.571,137.712 333,168.641 333,205L333,228.039C343.97,236.838 351,250.355 351,265.5C351,280.645 343.97,294.162 333,302.961L333,412L167,412L167,302.961C156.03,294.162 149,280.645 149,265.5C149,250.355 156.03,236.838 167,228.039L167,204.297C167,168.069 190.459,137.277 223,126.298L223,118.75C223,112.817 227.817,108 233.75,108L242,108L242,67.988Z" style="fill:rgb(94,79,99);"/>
                </g>
                <g transform="matrix(0.533333,0,0,0.472441,208,81.8425)">
                    <path d="M525.625,402.5C525.625,357.718 493.419,321.361 453.75,321.361C453.75,321.361 266.25,321.361 266.25,321.361C226.581,321.361 194.375,357.718 194.375,402.5C194.375,447.282 226.581,483.639 266.25,483.639L453.75,483.639C493.419,483.639 525.625,447.282 525.625,402.5ZM510,402.5C510,367.453 484.795,339 453.75,339L266.25,339C235.205,339 210,367.453 210,402.5C210,437.547 235.205,466 266.25,466L453.75,466C484.795,466 510,437.547 510,402.5Z" style="fill:rgb(194,185,197);"/>
                </g>
                <g transform="matrix(1,0,0,1,150,6.5)">
                    <path d="M232.4,383.5L232.4,357.5L213.2,357.5L213.2,383.222C214.606,383.405 216.041,383.5 217.5,383.5L232.4,383.5ZM259.6,383.5L259.6,357.5L240.4,357.5L240.4,383.5L259.6,383.5ZM286.8,383.222L286.8,357.5L267.6,357.5L267.6,383.5L282.5,383.5C283.959,383.5 285.394,383.405 286.8,383.222ZM313.722,357.5L294.8,357.5L294.8,381.123C304.848,377.055 312.228,368.159 313.722,357.5ZM205.2,357.5L186.278,357.5C187.773,368.16 195.153,377.055 205.2,381.123L205.2,357.5ZM294.8,325.877L294.8,349.5L313.722,349.5C312.227,338.84 304.847,329.945 294.8,325.877ZM205.2,349.5L205.2,325.877C195.152,329.945 187.772,338.841 186.278,349.5L205.2,349.5ZM259.6,323.5L240.4,323.5L240.4,349.5L259.6,349.5L259.6,323.5ZM232.4,323.5L217.5,323.5C216.041,323.5 214.606,323.595 213.2,323.778L213.2,349.5L232.4,349.5L232.4,323.5Z" style="fill:rgb(194,185,197);"/>
                </g>
                <g transform="matrix(1,0,0,1,147.722,6.5)">
                    <path d="M215.278,233.5C232.939,233.5 247.278,247.839 247.278,265.5C247.278,283.161 232.939,297.5 215.278,297.5C197.617,297.5 183.278,283.161 183.278,265.5C183.278,247.839 197.617,233.5 215.278,233.5ZM224.278,256.5L206.278,256.5L206.278,274.5L224.278,274.5L224.278,256.5Z" style="fill:rgb(194,185,197);"/>
                </g>
                <g transform="matrix(1,0,0,1,221.68,6.5)">
                    <path d="M215.278,233.5C232.939,233.5 247.278,247.839 247.278,265.5C247.278,283.161 232.939,297.5 215.278,297.5C197.617,297.5 183.278,283.161 183.278,265.5C183.278,247.839 197.617,233.5 215.278,233.5ZM224.278,256.5L206.278,256.5L206.278,274.5L224.278,274.5L224.278,256.5Z" style="fill:rgb(194,185,197);"/>
                </g>
            </g>
        </g>
    </g>
</svg>
