<?xml version="1.0" encoding="UTF-8" standalone="no"?>
<!DOCTYPE svg PUBLIC "-//W3C//DTD SVG 1.1//EN" "http://www.w3.org/Graphics/SVG/1.1/DTD/svg11.dtd">
<svg width="100%" height="100%" viewBox="0 0 500 390" version="1.1" xmlns="http://www.w3.org/2000/svg"
  xmlns:xlink="http://www.w3.org/1999/xlink" xml:space="preserve" xmlns:serif="http://www.serif.com/"
  style="fill-rule:evenodd;clip-rule:evenodd;stroke-linejoin:round;stroke-miterlimit:2;">
  <g transform="matrix(1,0,0,1,0,-50)">
    <g id="logo" transform="matrix(0.625,0,0,0.4875,0,50)">
      <g transform="matrix(1.59227,0,0,2.05945,15.5849,-91.0983)">
        <path
          d="M139.994,384.36C163.787,360.357 197.299,346.221 233.65,348.126C270.32,350.048 302.41,367.901 323.549,394.649C261.916,399.803 200.77,395.599 139.994,384.36ZM188.29,137.484L173.373,111.211C167.696,101.212 171.204,88.485 181.203,82.808C191.202,77.131 203.929,80.64 209.606,90.639L236.22,137.514C248.047,137.893 259.795,138.549 271.466,139.481L310.097,95.259C317.662,86.599 330.833,85.71 339.493,93.275C348.152,100.84 349.041,114.011 341.476,122.671L321.735,145.269C348.851,149.365 375.521,154.997 401.758,162.149C428.233,169.365 454.443,189.156 452.882,218.94L447.226,326.867C445.665,356.65 418.5,374.208 390.446,378.003C377.258,379.787 364.088,381.22 350.929,382.311C324.166,348.472 283.54,325.886 237.117,323.453C191.097,321.041 148.671,338.921 118.552,369.286C106.256,367.028 93.983,364.533 81.722,361.823C49.234,354.644 32.099,333.974 30.598,305.032C28.823,270.811 30.362,235.002 36.254,197.105C40.087,172.451 63.955,150.218 93.034,145.969C125.323,141.252 157.073,138.431 188.29,137.484ZM417.298,244.91C419.03,220.135 400.322,198.613 375.546,196.881C375.546,196.881 335.644,194.091 335.644,194.091C310.868,192.358 289.347,211.066 287.614,235.842C287.614,235.842 284.824,275.744 284.824,275.744C283.092,300.52 301.8,322.041 326.575,323.774C326.575,323.774 366.478,326.564 366.478,326.564C391.254,328.297 412.775,309.589 414.507,284.813C414.507,284.813 417.298,244.91 417.298,244.91ZM197.807,228.626C196.507,203.823 175.315,184.743 150.513,186.042C150.513,186.042 110.568,188.136 110.568,188.136C85.766,189.436 66.685,210.627 67.985,235.429C67.985,235.429 70.078,275.374 70.078,275.374C71.378,300.177 92.57,319.257 117.372,317.958C117.372,317.958 157.317,315.864 157.317,315.864C182.119,314.564 201.2,293.373 199.9,268.571C199.9,268.571 197.807,228.626 197.807,228.626Z"
          style="fill:rgb(203,190,207);" />
      </g>
      <g transform="matrix(1.29116,-0.0867522,0.0683572,1.67222,-107.424,83.7854)">
        <path
          d="M297,194.5C297,180.978 285.91,170 272.25,170L222.75,170C209.09,170 198,180.978 198,194.5L198,243.5C198,257.022 209.09,268 222.75,268L272.25,268C285.91,268 297,257.022 297,243.5L297,194.5Z"
          style="fill:rgb(151,133,157);" />
      </g>
      <g transform="matrix(1.28978,0.115628,-0.0911105,1.67044,275.23,51.3966)">
        <path
          d="M297,194.5C297,180.978 285.91,170 272.25,170L222.75,170C209.09,170 198,180.978 198,194.5L198,243.5C198,257.022 209.09,268 222.75,268L272.25,268C285.91,268 297,257.022 297,243.5L297,194.5Z"
          style="fill:rgb(151,133,157);" />
      </g>
    </g>
  </g>
</svg>