<?xml version="1.0" encoding="UTF-8" standalone="no"?>
<!DOCTYPE svg PUBLIC "-//W3C//DTD SVG 1.1//EN" "http://www.w3.org/Graphics/SVG/1.1/DTD/svg11.dtd">
<svg width="100%" height="100%" viewBox="0 0 440 440" version="1.1" xmlns="http://www.w3.org/2000/svg" xmlns:xlink="http://www.w3.org/1999/xlink" xml:space="preserve" xmlns:serif="http://www.serif.com/" style="fill-rule:evenodd;clip-rule:evenodd;stroke-linejoin:round;stroke-miterlimit:2;">
    <g transform="matrix(1,0,0,1,-1047.23,-0.143066)">
        <g id="Marvin" transform="matrix(0.88,0,0,0.88,526.272,0.143066)">
            <rect x="592" y="0" width="500" height="500" style="fill:rgb(94,79,99);"/>
            <g transform="matrix(1.08446,0,0,1.08446,-543.268,12.909)">
                <circle cx="1277.38" cy="218.625" r="183.375" style="fill:rgb(194,185,197);"/>
            </g>
            <g transform="matrix(1.13636,0,0,1.13636,-598.037,-0.162575)">
                <path d="M1156.08,255.882L1202.91,298.5L1245.26,231.225C1251.59,230.758 1258.01,230.49 1264.49,230.429C1275.19,230.33 1286.04,230.805 1296.83,231.919L1339.23,298.5L1381.52,257.6C1387.92,261.332 1394,265.487 1399.67,270.09C1404.14,273.712 1410.7,273.027 1414.32,268.562C1417.94,264.097 1417.26,257.532 1412.79,253.91C1373.66,222.164 1317.41,209.103 1264.29,209.597C1210.89,210.094 1160.86,224.399 1134.46,245.686C1129.99,249.296 1129.28,255.859 1132.89,260.334C1136.5,264.809 1143.06,265.512 1147.54,261.903C1150.14,259.808 1152.99,257.8 1156.08,255.882Z" style="fill:rgb(94,79,99);"/>
            </g>
            <g transform="matrix(1.13636,0,0,1.13636,-598.037,-0.162575)">
                <path d="M1192.02,240.53C1184.07,243.189 1176.49,246.664 1169.47,251.165L1169.47,251.165C1169.47,251.165 1200.28,279.208 1200.28,279.208C1200.28,279.208 1229.11,233.414 1229.11,233.414C1224.75,233.766 1220.39,234.25 1216.08,234.895C1207.67,236.415 1199.61,238.303 1192.02,240.53Z" style="fill:rgb(89,166,98);"/>
            </g>
            <g transform="matrix(1.13636,0,0,1.13636,-598.037,-0.162575)">
                <path d="M1322.11,235.766C1319.2,235.311 1316.28,234.91 1313.33,234.559C1313.33,234.559 1341.55,278.868 1341.55,278.868L1369.9,251.448C1355.05,244.325 1338.85,239.183 1322.11,235.766Z" style="fill:rgb(89,166,98);"/>
            </g>
        </g>
    </g>
</svg>
