<svg width="96" height="80" viewBox="0 0 96 80" fill="none" xmlns="http://www.w3.org/2000/svg">
<g clip-path="url(#clip0_32_1884)">
<path d="M89 27.9963C89 19.1618 81.8366 12 73 12H23C14.1634 12 7 19.1618 7 27.9963V55.9899C7 64.8245 14.1634 71.9863 23 71.9863H62.3905C67.2491 71.9863 71.8947 73.9802 75.241 77.5019C80.2035 82.7244 89 79.213 89 72.0096V27.9963Z" fill="#F1EEF1"/>
<path fill-rule="evenodd" clip-rule="evenodd" d="M23 19.9961H73C77.4183 19.9961 81 23.5771 81 27.9946V71.9498C76.1464 66.8653 69.4221 63.9876 62.3905 63.9876H23C18.5817 63.9876 15 60.4065 15 55.9891V27.9946C15 23.5771 18.5817 19.9961 23 19.9961ZM73 11.9977C81.8366 11.9977 89 19.1597 89 27.9946V72.0093C89 79.2129 80.2035 82.7245 75.241 77.5018C71.8947 73.98 67.2491 71.986 62.3905 71.986H23C14.1634 71.986 7 64.824 7 55.9891V27.9946C7 19.1597 14.1634 11.9977 23 11.9977H73Z" fill="url(#paint0_linear_32_1884)"/>
<path fill-rule="evenodd" clip-rule="evenodd" d="M55 57.9887H41V63.9876H55V57.9887ZM41 49.9903C36.5817 49.9903 33 53.5713 33 57.9887V71.986H63V57.9887C63 53.5713 59.4183 49.9903 55 49.9903H41Z" fill="url(#paint1_linear_32_1884)"/>
<path d="M44 3.99922C44 1.79051 45.7909 0 48 0C50.2091 0 52 1.79051 52 3.99922V11.9977H44V3.99922Z" fill="url(#paint2_linear_32_1884)"/>
<path d="M0 35.993C0 32.1278 3.13401 28.9944 7 28.9944V55.9891C3.13401 55.9891 0 52.8557 0 48.9905V35.993Z" fill="url(#paint3_linear_32_1884)"/>
<path d="M96 35.993C96 32.1278 92.866 28.9944 89 28.9944V55.9891C92.866 55.9891 96 52.8557 96 48.9905V35.993Z" fill="url(#paint4_linear_32_1884)"/>
<path d="M19 34.9932C19 36.7001 19.3233 38.3902 19.9515 39.9671C20.5797 41.544 21.5004 42.9769 22.6612 44.1838C23.8219 45.3907 25.1999 46.3481 26.7165 47.0013C28.233 47.6545 29.8585 47.9907 31.5 47.9907C33.1415 47.9907 34.767 47.6545 36.2835 47.0013C37.8001 46.3481 39.1781 45.3907 40.3388 44.1838C41.4996 42.9769 42.4203 41.544 43.0485 39.9671C43.6767 38.3902 44 36.7001 44 34.9932H36.7107C36.7107 35.7047 36.576 36.4093 36.3141 37.0666C36.0522 37.724 35.6684 38.3213 35.1846 38.8244C34.7007 39.3275 34.1263 39.7266 33.4941 39.9989C32.8619 40.2712 32.1843 40.4113 31.5 40.4113C30.8157 40.4113 30.1381 40.2712 29.5059 39.9989C28.8737 39.7266 28.2993 39.3275 27.8155 38.8244C27.3316 38.3213 26.9478 37.724 26.6859 37.0666C26.424 36.4093 26.2893 35.7047 26.2893 34.9932H19Z" fill="url(#paint5_linear_32_1884)"/>
<path d="M51 34.9932C51 36.7001 51.3363 38.3902 51.9896 39.9671C52.6429 41.544 53.6005 42.9769 54.8076 44.1838C56.0148 45.3907 57.4479 46.3481 59.0251 47.0013C60.6023 47.6545 62.2928 47.9907 64 47.9907C65.7072 47.9907 67.3977 47.6545 68.9749 47.0013C70.5521 46.3481 71.9852 45.3907 73.1924 44.1838C74.3996 42.9769 75.3571 41.544 76.0104 39.9671C76.6637 38.3902 77 36.7001 77 34.9932H69.4192C69.4192 35.7047 69.279 36.4093 69.0067 37.0666C68.7343 37.724 68.3351 38.3213 67.8319 38.8244C67.3287 39.3275 66.7313 39.7266 66.0738 39.9989C65.4163 40.2712 64.7117 40.4113 64 40.4113C63.2883 40.4113 62.5837 40.2712 61.9262 39.9989C61.2687 39.7266 60.6713 39.3275 60.1681 38.8244C59.6649 38.3213 59.2657 37.724 58.9933 37.0666C58.721 36.4093 58.5808 35.7047 58.5808 34.9932H51Z" fill="url(#paint6_linear_32_1884)"/>
</g>
<defs>
<linearGradient id="paint0_linear_32_1884" x1="48" y1="0" x2="48" y2="80" gradientUnits="userSpaceOnUse">
<stop stop-color="#E1DDE2"/>
<stop offset="1" stop-color="#9A8D9E"/>
</linearGradient>
<linearGradient id="paint1_linear_32_1884" x1="48" y1="0" x2="48" y2="80" gradientUnits="userSpaceOnUse">
<stop stop-color="#E1DDE2"/>
<stop offset="1" stop-color="#9A8D9E"/>
</linearGradient>
<linearGradient id="paint2_linear_32_1884" x1="48" y1="0" x2="48" y2="80" gradientUnits="userSpaceOnUse">
<stop stop-color="#E1DDE2"/>
<stop offset="1" stop-color="#9A8D9E"/>
</linearGradient>
<linearGradient id="paint3_linear_32_1884" x1="48" y1="0" x2="48" y2="80" gradientUnits="userSpaceOnUse">
<stop stop-color="#E1DDE2"/>
<stop offset="1" stop-color="#9A8D9E"/>
</linearGradient>
<linearGradient id="paint4_linear_32_1884" x1="48" y1="0" x2="48" y2="80" gradientUnits="userSpaceOnUse">
<stop stop-color="#E1DDE2"/>
<stop offset="1" stop-color="#9A8D9E"/>
</linearGradient>
<linearGradient id="paint5_linear_32_1884" x1="48" y1="0" x2="48" y2="80" gradientUnits="userSpaceOnUse">
<stop stop-color="#E1DDE2"/>
<stop offset="1" stop-color="#9A8D9E"/>
</linearGradient>
<linearGradient id="paint6_linear_32_1884" x1="48" y1="0" x2="48" y2="80" gradientUnits="userSpaceOnUse">
<stop stop-color="#E1DDE2"/>
<stop offset="1" stop-color="#9A8D9E"/>
</linearGradient>
<clipPath id="clip0_32_1884">
<rect width="96" height="80" fill="white"/>
</clipPath>
</defs>
</svg>
