<svg width="96" height="80" viewBox="0 0 96 80" fill="none" xmlns="http://www.w3.org/2000/svg">
<g clip-path="url(#clip0_32_1884)">
<path d="M89 27.9963C89 19.1618 81.8366 12 73 12H23C14.1634 12 7 19.1618 7 27.9963V55.9899C7 64.8245 14.1634 71.9863 23 71.9863H62.3905C67.2491 71.9863 71.8947 73.9802 75.241 77.5019C80.2035 82.7244 89 79.213 89 72.0096V27.9963Z" fill="#F1EEF1"/>
<path d="M41.0051 43.4428C42.938 41.0891 44 38.0953 44 35H36.5C36.5 36.2381 36.0752 37.4356 35.302 38.3771C34.5289 39.3186 33.458 39.9423 32.2822 40.136C31.1063 40.3297 29.9026 40.0807 28.8875 39.4337C27.8724 38.7868 27.1126 37.7844 26.7447 36.6069L19.6118 39.0172C20.5315 41.9611 22.4311 44.467 24.9688 46.0843C27.5065 47.7016 30.5158 48.3242 33.4554 47.8399C36.3951 47.3557 39.0721 45.7965 41.0051 43.4428Z" fill="url(#paint0_linear_32_1884)"/>
<path d="M51 35C51 38.0953 52.1045 41.0891 54.1147 43.4428C56.125 45.7965 58.9091 47.3557 61.9664 47.8399C65.0236 48.3242 68.1533 47.7016 70.7925 46.0843C73.4317 44.467 75.4072 41.9611 76.3637 39.0172L68.9455 36.6069C68.5629 37.7844 67.7727 38.7868 66.717 39.4337C65.6613 40.0807 64.4094 40.3297 63.1865 40.136C61.9636 39.9423 60.85 39.3186 60.0459 38.3771C59.2418 37.4356 58.8 36.2381 58.8 35H51Z" fill="url(#paint1_linear_32_1884)"/>
<path d="M55.0711 52.9289C56.9464 54.8043 58 57.3478 58 60H38C38 57.3478 39.0536 54.8043 40.9289 52.9289C42.8043 51.0536 45.3478 50 48 50C50.6522 50 53.1957 51.0536 55.0711 52.9289Z" fill="url(#paint2_linear_32_1884)"/>
<path fill-rule="evenodd" clip-rule="evenodd" d="M59.0866 6.5922C59.6896 5.13629 60 3.57586 60 2H53.76C53.76 2.75641 53.611 3.50542 53.3215 4.20426C53.0321 4.90309 52.6078 5.53807 52.0729 6.07294C51.5381 6.6078 50.9031 7.03208 50.2043 7.32155C49.5054 7.61101 48.7564 7.76 48 7.76C47.2436 7.76 46.4946 7.61101 45.7957 7.32155C45.0969 7.03208 44.4619 6.6078 43.9271 6.07293C43.3922 5.53807 42.9679 4.90309 42.6785 4.20426C42.389 3.50542 42.24 2.75641 42.24 2H36C36 3.57586 36.3104 5.13629 36.9134 6.5922C37.5165 8.04811 38.4004 9.37098 39.5147 10.4853C40.0814 11.052 40.7021 11.5591 41.3668 12H23C14.1634 12 7 19.1634 7 28V33C3.13401 33 0 36.134 0 40V50C0 53.866 3.13401 57 7 57V56C7 64.8366 14.1634 72 23 72H62.3905C67.2491 72 71.8947 73.9944 75.241 77.5169C80.2035 82.7406 89 79.2283 89 72.0233V57C92.866 57 96 53.866 96 50V40C96 36.134 92.866 33 89 33V28C89 19.1634 81.8366 12 73 12H54.6332C55.2979 11.5591 55.9186 11.052 56.4853 10.4853C57.5996 9.37098 58.4835 8.04811 59.0866 6.5922ZM73 20H23C18.5817 20 15 23.5817 15 28V56C15 60.4183 18.5817 64 23 64H62.3905C69.4221 64 76.1464 66.8783 81 71.9638V28C81 23.5817 77.4183 20 73 20Z" fill="url(#paint3_linear_32_1884)"/>
</g>
<defs>
<linearGradient id="paint0_linear_32_1884" x1="48" y1="2" x2="48" y2="80.0155" gradientUnits="userSpaceOnUse">
<stop stop-color="#E1DDE2"/>
<stop offset="1" stop-color="#9A8D9E"/>
</linearGradient>
<linearGradient id="paint1_linear_32_1884" x1="48" y1="2" x2="48" y2="80.0155" gradientUnits="userSpaceOnUse">
<stop stop-color="#E1DDE2"/>
<stop offset="1" stop-color="#9A8D9E"/>
</linearGradient>
<linearGradient id="paint2_linear_32_1884" x1="48" y1="2" x2="48" y2="80.0155" gradientUnits="userSpaceOnUse">
<stop stop-color="#E1DDE2"/>
<stop offset="1" stop-color="#9A8D9E"/>
</linearGradient>
<linearGradient id="paint3_linear_32_1884" x1="48" y1="2" x2="48" y2="80.0155" gradientUnits="userSpaceOnUse">
<stop stop-color="#E1DDE2"/>
<stop offset="1" stop-color="#9A8D9E"/>
</linearGradient>
<clipPath id="clip0_32_1884">
<rect width="96" height="80" fill="white"/>
</clipPath>
</defs>
</svg>
